<svg xmlns="http://www.w3.org/2000/svg" width="32" height="32" viewBox="0 0 32 32">
  <path id="calculate_FILL1_wght400_GRAD0_opsz48" d="M11.378,16.444h8.711V14.222H11.378Zm12.8,15.2h8.933V29.467H24.178Zm0-4.756h8.933V24.667H24.178ZM14.622,33.2h2.222V29.289h3.911V27.067H16.844V23.156H14.622v3.911H10.711v2.222h3.911Zm11.2-13.556,2.711-2.711,2.711,2.711,1.6-1.6-2.711-2.711,2.711-2.711-1.6-1.6-2.711,2.711-2.711-2.711-1.6,1.6,2.711,2.711-2.711,2.711ZM8.667,38A2.558,2.558,0,0,1,6.8,37.2,2.558,2.558,0,0,1,6,35.333V8.667A2.558,2.558,0,0,1,6.8,6.8,2.558,2.558,0,0,1,8.667,6H35.333a2.558,2.558,0,0,1,1.867.8A2.558,2.558,0,0,1,38,8.667V35.333A2.734,2.734,0,0,1,35.333,38Z" transform="translate(-6 -6)" fill="#02abc0"/>
</svg>
