<svg xmlns="http://www.w3.org/2000/svg" xmlns:xlink="http://www.w3.org/1999/xlink" width="93" height="93" viewBox="0 0 93 93">
  <defs>
    <linearGradient id="linear-gradient" x1="0.733" y1="0.23" x2="-0.056" y2="0.752" gradientUnits="objectBoundingBox">
      <stop offset="0" stop-color="#f6cc36"/>
      <stop offset="1" stop-color="#fe8a3b"/>
    </linearGradient>
    <linearGradient id="linear-gradient-2" x1="0.897" y1="0.092" x2="-0.068" y2="0.809" xlink:href="#linear-gradient"/>
    <linearGradient id="linear-gradient-3" x1="0.307" y1="0.673" x2="0.985" y2="-0.126" xlink:href="#linear-gradient"/>
    <linearGradient id="linear-gradient-4" x1="0" y1="0.5" x2="1" y2="0.5" xlink:href="#linear-gradient"/>
    <linearGradient id="linear-gradient-5" x1="0.768" y1="0.184" x2="0.081" y2="1.052" xlink:href="#linear-gradient"/>
    <linearGradient id="linear-gradient-6" x1="0.725" y1="0.229" x2="-0.108" y2="1.217" xlink:href="#linear-gradient"/>
  </defs>
  <g id="Group_71" data-name="Group 71" transform="translate(-0.226 -0.326)">
    <rect id="Rectangle_2462" data-name="Rectangle 2462" width="93" height="93" transform="translate(0.226 0.326)" fill="none"/>
    <g id="Layer_2" data-name="Layer 2" transform="translate(10.16 6.07)">
      <g id="Layer_1" data-name="Layer 1">
        <path id="Path_20" data-name="Path 20" d="M.209,24.536,0,55.9a9.11,9.11,0,0,0,4.5,7.909L31.551,79.675a9.11,9.11,0,0,0,9.11.059l27.27-15.5a9.11,9.11,0,0,0,4.6-7.845l.214-31.364a9.11,9.11,0,0,0-4.5-7.909L41.175,1.247a9.11,9.11,0,0,0-9.11-.059L4.823,16.685a9.11,9.11,0,0,0-4.614,7.85Z" transform="translate(0 0.003)" fill="#3a4ca8"/>
        <path id="Path_21" data-name="Path 21" d="M94.978,101.388l-21.4,12.164-.166.086a1.27,1.27,0,0,1-1.87-1.131,1.23,1.23,0,0,1,.161-.605,1.2,1.2,0,0,1,.086-.161,2.134,2.134,0,0,0,.118-.182L84.17,90.66l10.84,6.377a2.513,2.513,0,0,1-.032,4.351Z" transform="translate(-33.205 -42.078)" fill="#3a4ca8"/>
        <path id="Path_22" data-name="Path 22" d="M70.156,47.1a1.072,1.072,0,0,0-.611.2,1.748,1.748,0,0,1-.188.113l-21.4,12.132a8.381,8.381,0,0,1-8.333-.043L29.109,53.407,16.441,75.018a4.185,4.185,0,0,0,1.5,5.728L36.691,91.732l2.449,1.442a4.566,4.566,0,0,0,.605.3h0a8.365,8.365,0,0,0,7.807-.054,1.27,1.27,0,0,1-1.87-1.131,1.232,1.232,0,0,1,.161-.606,1.213,1.213,0,0,1,.1-.161,2.154,2.154,0,0,0,.118-.182l12.266-20.9,12.657-21.6.1-.182h0a1.024,1.024,0,0,0,.048-.113.977.977,0,0,0,.075-.375A1.072,1.072,0,0,0,70.156,47.1Z" transform="translate(-7.364 -21.859)" fill="#3a4ca8"/>
        <path id="Path_23" data-name="Path 23" d="M71.3,27.82l-.155-.1L53.693,17.451l-3.8-2.235a8.37,8.37,0,0,0-8.4-.059l-20.159,11.5a3.344,3.344,0,0,0-.032,5.8l9.56,5.61,10.514,6.093a8.381,8.381,0,0,0,8.333.043l21.4-12.132a1.746,1.746,0,0,0,.188-.113,1.064,1.064,0,0,1,1.683.873.975.975,0,0,1-.075.375A4.169,4.169,0,0,0,71.3,27.82Z" transform="translate(-9.115 -6.523)" fill="#3a4ca8"/>
        <path id="Path_24" data-name="Path 24" d="M95.012,97.036l-9.919-5.83-.921-.536-12.266,20.9a1.6,1.6,0,0,1-.118.177.866.866,0,0,0-.086.139,1.27,1.27,0,0,0,1.1,1.886,1.329,1.329,0,0,0,.466-.086.815.815,0,0,0,.139-.064h0a.923.923,0,0,0,.161-.086l21.4-12.159a2.518,2.518,0,0,0,.037-4.34Zm-.536,3.424-21.4,12.164-.134.07a.2.2,0,0,1-.1,0H72.79a.2.2,0,0,1-.08-.048.189.189,0,0,1-.038-.054h0a.145.145,0,0,1,0-.064.259.259,0,0,1,0-.08l.038-.054c.059-.086.118-.177.166-.257L84.557,92.128l9.913,5.835a1.447,1.447,0,0,1,0,2.5Z" transform="translate(-33.206 -42.082)" fill="url(#linear-gradient)"/>
        <path id="Path_25" data-name="Path 25" d="M94.618,94.875l-9.913-5.8-.927-.536L82.856,88,70.044,109.809l-.054.086a1.939,1.939,0,0,0-.166.257,2.422,2.422,0,0,0-.289,1.109,2.2,2.2,0,0,0,0,.327.956.956,0,0,0,.032.172,1.983,1.983,0,0,0,.064.241,1.954,1.954,0,0,0,.086.225,2.27,2.27,0,0,0,.477.7,2.357,2.357,0,0,0,.279.241,2.282,2.282,0,0,0,1.372.455h0a2.293,2.293,0,0,0,1.018-.23l.086-.043.188-.1,21.4-12.159a3.59,3.59,0,0,0,.043-6.21Zm-1.1,4.346-21.4,12.164-.134.07a.2.2,0,0,1-.1,0h-.054a.2.2,0,0,1-.08-.048.231.231,0,0,1-.038-.054h0a.144.144,0,0,1,0-.064.265.265,0,0,1,0-.08l.038-.054c.059-.086.118-.177.166-.257L83.622,90.888l9.913,5.835a1.447,1.447,0,0,1,0,2.5Z" transform="translate(-32.271 -40.843)" fill="#fff"/>
        <path id="Path_26" data-name="Path 26" d="M96.13,100.48a1.409,1.409,0,0,1-.729,1.243L74,113.887l-.134.07a.2.2,0,0,1-.1,0h-.054a.2.2,0,0,1-.08-.048.2.2,0,0,1-.038-.054h0a.145.145,0,0,1,0-.064.259.259,0,0,1,0-.08l.038-.054c.059-.086.118-.177.166-.257L85.509,93.39l9.913,5.835a1.42,1.42,0,0,1,.707,1.254Z" transform="translate(-34.158 -43.345)" fill="url(#linear-gradient-2)"/>
        <path id="Path_27" data-name="Path 27" d="M70.161,47.1a1.072,1.072,0,0,0-.616.2,2.187,2.187,0,0,1-.188.113l-21.4,12.132a8.37,8.37,0,0,1-8.327-.043L29.114,53.407l-.536.927L16.441,75.018a4.185,4.185,0,0,0,1.5,5.728L36.691,91.732l2.449,1.442a4.912,4.912,0,0,0,.605.3h0a8.37,8.37,0,0,0,5.841.729,8.505,8.505,0,0,0,1.983-.761A1.27,1.27,0,0,1,45.86,91.7a.878.878,0,0,1,.086-.182,1.611,1.611,0,0,0,.118-.187l12.266-20.9.536-.927L70.981,48.842c.032-.064.07-.123.1-.182h0l.038-.08a.353.353,0,0,0,0-.037.948.948,0,0,0,.075-.37A1.072,1.072,0,0,0,70.161,47.1ZM45.137,90.826l-.054.086a1.937,1.937,0,0,0-.166.257,2.422,2.422,0,0,0-.289,1.109,2.186,2.186,0,0,0,0,.327,1.6,1.6,0,0,0,.032.171,2,2,0,0,0,.064.241,1.923,1.923,0,0,0,.086.225,7.256,7.256,0,0,1-4.4-.648l-.263-.134a3.815,3.815,0,0,1-.472-.23L18.483,79.825a3.113,3.113,0,0,1-1.115-4.287L29.495,54.87l9.592,5.573a9.485,9.485,0,0,0,9.4.048l21.4-12.127.07-.043a1.164,1.164,0,0,0,.166-.1Z" transform="translate(-7.364 -21.859)" fill="url(#linear-gradient-3)"/>
        <path id="Path_28" data-name="Path 28" d="M70.742,45.748l-.118-.112a2.143,2.143,0,0,0-1.136-.509,1.924,1.924,0,0,0-.252,0h-.182a2.505,2.505,0,0,0-.4.07,2.1,2.1,0,0,0-.375.145,2.219,2.219,0,0,0-.268.161.578.578,0,0,1-.113.07L46.5,57.692a7.315,7.315,0,0,1-7.261-.037L28.73,51.562l-.927-.536-.536.922-.536.922L14.594,73.559a5.262,5.262,0,0,0,1.875,7.2L37.658,93.177a6.108,6.108,0,0,0,.675.338,9.415,9.415,0,0,0,8.734-.027l.086-.043-.525-.948-.5-.943a.2.2,0,0,1-.1,0h-.054a.2.2,0,0,1-.08-.048.193.193,0,0,1-.038-.054h0a.145.145,0,0,1,0-.064.262.262,0,0,1,0-.08l.038-.054c.059-.086.118-.177.166-.257L57.79,70.987l.536-.922.536-.922,12.132-20.7.23-.429v-.048h0a2.193,2.193,0,0,0,.123-.7A2.143,2.143,0,0,0,70.742,45.748Zm-26.53,44.16-.054.086a1.937,1.937,0,0,0-.166.257A2.423,2.423,0,0,0,43.7,91.36a2.189,2.189,0,0,0,0,.327.964.964,0,0,0,.032.172,2,2,0,0,0,.064.241,1.925,1.925,0,0,0,.086.225,7.256,7.256,0,0,1-4.4-.648l-.263-.134a3.823,3.823,0,0,1-.472-.23L17.558,78.907a3.113,3.113,0,0,1-1.115-4.287L28.57,53.952h0l9.592,5.573a9.485,9.485,0,0,0,9.4.048l21.4-12.127.07-.043a1.164,1.164,0,0,0,.166-.1Z" transform="translate(-6.438 -20.942)" fill="#fff"/>
        <path id="Path_29" data-name="Path 29" d="M71.04,49.16,46.059,91.782,46,91.868a1.933,1.933,0,0,0-.166.257,2.421,2.421,0,0,0-.289,1.109,2.19,2.19,0,0,0,0,.327.964.964,0,0,0,.032.171,2.009,2.009,0,0,0,.064.241,1.931,1.931,0,0,0,.086.225,7.255,7.255,0,0,1-4.4-.648l-.263-.134a3.825,3.825,0,0,1-.472-.23L19.4,80.781a3.113,3.113,0,0,1-1.115-4.287L30.417,55.826,40.009,61.4a9.485,9.485,0,0,0,9.4.048L70.8,49.321l.07-.043A1.162,1.162,0,0,0,71.04,49.16Z" transform="translate(-8.286 -22.816)" fill="url(#linear-gradient-4)"/>
        <path id="Path_30" data-name="Path 30" d="M73.306,31.216a4.164,4.164,0,0,0-2-3.4l-.155-.1L53.693,17.45l-3.8-2.235a8.381,8.381,0,0,0-8.4-.064L21.333,26.661a3.344,3.344,0,0,0-.032,5.8l8.638,5.069.927.536,10.514,6.1a8.37,8.37,0,0,0,8.327.043l21.4-12.132a2.168,2.168,0,0,0,.188-.113,1.072,1.072,0,0,1,1.666.873.949.949,0,0,1-.075.37A4.142,4.142,0,0,0,73.306,31.216Zm-1.388-.536h-.182a1.663,1.663,0,0,0-.4.07,2.1,2.1,0,0,0-.375.145,2.214,2.214,0,0,0-.268.161.575.575,0,0,1-.113.07l-21.4,12.148a7.315,7.315,0,0,1-7.261-.038L31.407,37.143l-9.565-5.61a2.277,2.277,0,0,1,0-3.944l20.18-11.5a7.331,7.331,0,0,1,7.325.054l21.22,12.485.177.113a3.081,3.081,0,0,1,1.425,1.972,1.929,1.929,0,0,0-.252-.016Z" transform="translate(-9.115 -6.522)" fill="url(#linear-gradient-5)"/>
        <path id="Path_31" data-name="Path 31" d="M70.932,25.951,49.5,13.342a9.469,9.469,0,0,0-9.474-.064L19.881,24.793a4.421,4.421,0,0,0-.043,7.652l8.638,5.069.927.536.922.536h0l9.592,5.584a9.485,9.485,0,0,0,9.4.048l21.4-12.126.07-.043a.89.89,0,0,0,.193-.166l.981.439.975.434a1.384,1.384,0,0,0,.059-.129h0A5.209,5.209,0,0,0,70.932,25.951ZM71,29.744h-.182a1.662,1.662,0,0,0-.4.07,2.1,2.1,0,0,0-.375.145,2.221,2.221,0,0,0-.268.161.574.574,0,0,1-.113.07l-21.4,12.148a7.315,7.315,0,0,1-7.261-.038L30.485,36.207,20.92,30.6a2.277,2.277,0,0,1,0-3.944l20.18-11.5a7.331,7.331,0,0,1,7.325.054l21.22,12.486.177.113a3.081,3.081,0,0,1,1.425,1.972A1.931,1.931,0,0,0,71,29.755Z" transform="translate(-8.193 -5.586)" fill="#fff"/>
        <path id="Path_32" data-name="Path 32" d="M73.092,31.637a1.916,1.916,0,0,0-.252,0h-.182a1.659,1.659,0,0,0-.4.07,2.091,2.091,0,0,0-.375.145,2.219,2.219,0,0,0-.268.161.574.574,0,0,1-.113.07L50.1,44.2a7.314,7.314,0,0,1-7.261-.038L32.329,38.073l-9.565-5.61a2.277,2.277,0,0,1,0-3.944l20.18-11.5a7.331,7.331,0,0,1,7.325.054L71.49,29.553l.177.113A3.081,3.081,0,0,1,73.092,31.637Z" transform="translate(-10.037 -7.452)" fill="url(#linear-gradient-6)"/>
      </g>
    </g>
  </g>
</svg>
