<svg xmlns="http://www.w3.org/2000/svg" width="93" height="93" viewBox="0 0 93 93">
  <g id="Group_3184" data-name="Group 3184" transform="translate(-0.196 -0.326)">
    <rect id="Rectangle_2220" data-name="Rectangle 2220" width="93" height="93" transform="translate(0.196 0.326)" fill="none"/>
    <g id="Group_3172" data-name="Group 3172" transform="translate(5.819 23.051)">
      <path id="Path_6" data-name="Path 6" d="M446.759-441.249l19.912-.015a16.77,16.77,0,0,0-2.1-5.373,17.217,17.217,0,0,0-14.421-8.249,17.119,17.119,0,0,0-8.866,2.322,8.8,8.8,0,0,1-.99.588c-.519-.918-3.782-5.419-3.881-5.853.37-.17.853-.541,1.272-.778a23.685,23.685,0,0,1,4.382-2.014,24.258,24.258,0,0,1,18,.924,24.269,24.269,0,0,1,8.353,6.395,23.715,23.715,0,0,1,3.443,5.4,25.073,25.073,0,0,1,2.256,9.6c0,.987.039,3.209-.015,4.058l-27.337.019Z" transform="translate(-392.69 462.953)" fill="#616161" fill-rule="evenodd"/>
      <path id="Path_8" data-name="Path 8" d="M224.855-430.118a14.06,14.06,0,0,0,7.979-2.372c.222.2,2.395,3.493,2.6,3.806l2.6,3.869c-.8.859-4.219,2.312-5.524,2.78a23.232,23.232,0,0,1-7.845,1.225,23.464,23.464,0,0,1-13.873-4.823,22.933,22.933,0,0,1-2.313-2.055,23.312,23.312,0,0,1,.016-32.924,23.287,23.287,0,0,1,16.741-6.846A23.344,23.344,0,0,1,243.7-458.1c1.724,2.3,3.9,6.6,4.229,9.713.147,1.384.275,2.806.407,4.2.3,3.125.289,4.691,1.9,7.416a14.049,14.049,0,0,0,11.665,6.949,13.848,13.848,0,0,0,6.367-1.3,14.31,14.31,0,0,0,3.13-2l.871-.793,6.552,6.557a18.669,18.669,0,0,1-3.083,2.631,22.838,22.838,0,0,1-3.656,2.1,23.412,23.412,0,0,1-22.484-1.676,23.257,23.257,0,0,1-10.024-14.479,32.006,32.006,0,0,1-.42-3.647c-.375-3.847-.314-6.455-2.6-9.67a14.3,14.3,0,0,0-4.186-3.981,14.162,14.162,0,0,0-13.045-.878,14.043,14.043,0,0,0-5.383,21.393A13.889,13.889,0,0,0,224.855-430.118Z" transform="translate(-201.68 467.457)" fill="#d93c3c" fill-rule="evenodd"/>
    </g>
  </g>
</svg>
