<svg xmlns="http://www.w3.org/2000/svg" width="29.673" height="32" viewBox="0 0 29.673 32">
  <path id="contacts_FILL1_wght400_GRAD0_opsz48" d="M6.218,34V31.818H30.655V34Zm0-29.818V2H30.655V4.182ZM18.436,19.309a4.223,4.223,0,0,0,4.291-4.291,4.223,4.223,0,0,0-4.291-4.291,4.223,4.223,0,0,0-4.291,4.291,4.223,4.223,0,0,0,4.291,4.291ZM5.782,29.636a2.093,2.093,0,0,1-1.527-.655A2.093,2.093,0,0,1,3.6,27.455V8.545a2.059,2.059,0,0,1,.655-1.564,2.154,2.154,0,0,1,1.527-.618H31.091a2.237,2.237,0,0,1,2.182,2.182V27.455a2.237,2.237,0,0,1-2.182,2.182Zm3.2-2.182H27.891a11.2,11.2,0,0,0-4.382-3.436,12.534,12.534,0,0,0-5.073-1.145,12.239,12.239,0,0,0-5.055,1.145A11.9,11.9,0,0,0,8.982,27.455Z" transform="translate(-3.6 -2)" fill="#02abc0"/>
</svg>
