<svg xmlns="http://www.w3.org/2000/svg" xmlns:xlink="http://www.w3.org/1999/xlink" width="74.189" height="74.189" viewBox="0 0 74.189 74.189">
  <defs>
    <clipPath id="clip-path">
      <rect id="Rectangle_2467" data-name="Rectangle 2467" width="5.523" height="42.865" transform="translate(0 0)" fill="none"/>
    </clipPath>
    <linearGradient id="linear-gradient" x1="-0.263" y1="1.502" x2="-0.244" y2="1.502" gradientUnits="objectBoundingBox">
      <stop offset="0" stop-color="#de2209"/>
      <stop offset="0.05" stop-color="#de2209"/>
      <stop offset="0.08" stop-color="#df2908"/>
      <stop offset="0.19" stop-color="#e54606"/>
      <stop offset="0.3" stop-color="#e95909"/>
      <stop offset="0.4" stop-color="#ec6603"/>
      <stop offset="0.51" stop-color="#ed6a04"/>
      <stop offset="1" stop-color="#ed6a04"/>
    </linearGradient>
    <clipPath id="clip-path-2">
      <path id="Path_59" data-name="Path 59" d="M50.625,36.358l15.03,8.678,5.523,3.189H82.223L76.7,45.036h0l-5.523-3.188L50.625,29.981,45.1,26.792Z" transform="translate(-45.102 -26.792)" fill="none"/>
    </clipPath>
    <linearGradient id="linear-gradient-2" x1="-0.71" y1="1.616" x2="-0.694" y2="1.616" gradientUnits="objectBoundingBox">
      <stop offset="0" stop-color="#ffac00"/>
      <stop offset="0.29" stop-color="#ffac00"/>
      <stop offset="0.9" stop-color="#ffe300"/>
      <stop offset="1" stop-color="#ffe300"/>
    </linearGradient>
    <clipPath id="clip-path-3">
      <path id="Path_60" data-name="Path 60" d="M75.1,63.456l-5.523,3.188h0l-8.422,4.864-6.607,3.813V81.7l6.607-3.814L75.1,69.833l5.523-3.189,5.523-3.188Z" transform="translate(-54.549 -63.456)" fill="none"/>
    </clipPath>
    <linearGradient id="linear-gradient-3" x1="-0.807" y1="1.384" x2="-0.791" y2="1.384" xlink:href="#linear-gradient-2"/>
    <clipPath id="clip-path-4">
      <path id="Path_61" data-name="Path 61" d="M64.056,63.456l-2.9,1.674-6.607,3.813v6.378l6.607-3.813h0l8.422-4.863h0L75.1,63.456Z" transform="translate(-54.549 -63.456)" fill="none"/>
    </clipPath>
    <linearGradient id="linear-gradient-4" x1="-1.277" y1="2.02" x2="-1.252" y2="2.02" gradientUnits="objectBoundingBox">
      <stop offset="0" stop-color="#de2209"/>
      <stop offset="0.05" stop-color="#de2209"/>
      <stop offset="0.12" stop-color="#df2908"/>
      <stop offset="0.34" stop-color="#e54606"/>
      <stop offset="0.56" stop-color="#e95909"/>
      <stop offset="0.78" stop-color="#ec6603"/>
      <stop offset="1" stop-color="#ed6a04"/>
    </linearGradient>
    <clipPath id="clip-path-5">
      <path id="Path_62" data-name="Path 62" d="M45.1,69.657l5.523-3.189V36.358L45.1,26.792Z" transform="translate(-45.102 -26.792)" fill="none"/>
    </clipPath>
    <linearGradient id="linear-gradient-5" x1="-0.228" y1="1.926" x2="-0.214" y2="1.926" xlink:href="#linear-gradient-2"/>
    <clipPath id="clip-path-6">
      <path id="Path_63" data-name="Path 63" d="M54.549,49.534l4.529,2.615,4.978,2.874H75.1l-5.523-3.189-15.03-8.678Z" transform="translate(-54.549 -43.156)" fill="none"/>
    </clipPath>
    <linearGradient id="linear-gradient-6" x1="-1.534" y1="2.317" x2="-1.506" y2="2.317" xlink:href="#linear-gradient-4"/>
  </defs>
  <g id="Group_3207" data-name="Group 3207" transform="translate(-1908.545 -1274)">
    <path id="Path_58" data-name="Path 58" d="M40.21,7.5A32.71,32.71,0,1,1,7.5,40.21,32.71,32.71,0,0,1,40.21,7.5" transform="translate(1905.429 1270.884)" fill="#313032"/>
    <circle id="Ellipse_1" data-name="Ellipse 1" cx="32.71" cy="32.71" r="32.71" transform="translate(1912.929 1278.385)" fill="none" stroke="#f27c00" stroke-miterlimit="10" stroke-width="5"/>
    <rect id="Rectangle_2465" data-name="Rectangle 2465" width="74.189" height="74.189" transform="translate(1908.545 1274)" fill="none"/>
    <g id="Group_3196" data-name="Group 3196" transform="translate(1929.387 1289.662)" clip-path="url(#clip-path)">
      <rect id="Rectangle_2466" data-name="Rectangle 2466" width="30.939" height="37.035" transform="matrix(0.784, -0.621, 0.621, 0.784, -20.861, 16.517)" fill="url(#linear-gradient)"/>
    </g>
    <g id="Group_3198" data-name="Group 3198" transform="translate(1934.911 1289.662)" clip-path="url(#clip-path-2)">
      <rect id="Rectangle_2468" data-name="Rectangle 2468" width="37.122" height="42.864" transform="translate(-9.281 16.075) rotate(-60)" fill="url(#linear-gradient-2)"/>
    </g>
    <g id="Group_3200" data-name="Group 3200" transform="translate(1940.433 1311.095)" clip-path="url(#clip-path-3)">
      <rect id="Rectangle_2469" data-name="Rectangle 2469" width="36.486" height="31.689" transform="translate(-7.945 4.64) rotate(-30.286)" fill="url(#linear-gradient-3)"/>
    </g>
    <g id="Group_3202" data-name="Group 3202" transform="translate(1940.433 1311.095)" clip-path="url(#clip-path-4)">
      <rect id="Rectangle_2470" data-name="Rectangle 2470" width="23.731" height="20.552" transform="translate(-5.138 2.966) rotate(-30.001)" fill="url(#linear-gradient-4)"/>
    </g>
    <g id="Group_3204" data-name="Group 3204" transform="translate(1934.911 1289.662)" clip-path="url(#clip-path-5)">
      <rect id="Rectangle_2471" data-name="Rectangle 2471" width="39.993" height="25.986" transform="translate(-18.417 32.394) rotate(-60.38)" fill="url(#linear-gradient-5)"/>
    </g>
    <g id="Group_3206" data-name="Group 3206" transform="translate(1940.433 1299.228)" clip-path="url(#clip-path-6)">
      <rect id="Rectangle_2472" data-name="Rectangle 2472" width="20.731" height="23.73" transform="matrix(0.513, -0.858, 0.858, 0.513, -5.226, 8.743)" fill="url(#linear-gradient-6)"/>
    </g>
  </g>
</svg>
