<svg width="1932" height="1833" viewBox="0 0 1932 1833" fill="none" xmlns="http://www.w3.org/2000/svg">
<path d="M905.806 742.528C939.651 710.817 992.298 710.817 1026.14 742.528L1144.31 853.243C1181.41 888.012 1181.41 946.906 1144.31 981.676L1026.14 1092.39C992.298 1124.1 939.651 1124.1 905.806 1092.39L787.642 981.676C750.534 946.906 750.534 888.012 787.642 853.243L905.806 742.528Z" fill="#02ABC0"/>
<path d="M896.163 614.344C935.392 577.588 996.415 577.588 1035.64 614.344L1279.37 842.703C1322.38 883.004 1322.38 951.267 1279.37 991.568L1035.64 1219.93C996.415 1256.68 935.392 1256.68 896.163 1219.93L652.44 991.568C609.428 951.267 609.428 883.004 652.44 842.703L896.163 614.344Z" fill="#02ABC0" fill-opacity="0.05"/>
<path d="M881.743 471.438C929.433 426.754 1003.62 426.754 1051.31 471.438L1432.48 828.579C1484.77 877.572 1484.77 960.559 1432.48 1009.55L1051.31 1366.69C1003.62 1411.38 929.433 1411.38 881.743 1366.69L500.575 1009.55C448.285 960.559 448.285 877.572 500.575 828.579L881.743 471.438Z" fill="#02ABC0" fill-opacity="0.03"/>
<path d="M859.958 290.939C919.956 234.723 1013.28 234.723 1073.28 290.939L1619.74 802.952C1685.53 864.589 1685.53 968.992 1619.74 1030.63L1073.28 1542.64C1013.29 1598.86 919.956 1598.86 859.958 1542.64L313.497 1030.63C247.714 968.992 247.714 864.589 313.497 802.952L859.958 290.939Z" fill="#02ABC0" fill-opacity="0.03"/>
<path d="M836.091 51.7202C909.165 -16.7475 1022.84 -16.7477 1095.91 51.72L1871.02 777.972C1951.14 853.043 1951.14 980.2 1871.02 1055.27L1095.91 1781.52C1022.84 1849.99 909.165 1849.99 836.091 1781.52L60.9775 1055.27C-19.1437 980.201 -19.1438 853.043 60.9773 777.972L836.091 51.7202Z" fill="#02ABC0" fill-opacity="0.03"/>
</svg>
