<svg xmlns="http://www.w3.org/2000/svg" xmlns:xlink="http://www.w3.org/1999/xlink" width="93" height="93" viewBox="0 0 93 93">
  <defs>
    <linearGradient id="linear-gradient" x1="0.335" x2="0.576" y2="1" gradientUnits="objectBoundingBox">
      <stop offset="0" stop-color="#649aff"/>
      <stop offset="1" stop-color="#377dff"/>
    </linearGradient>
  </defs>
  <g id="Group_3174" data-name="Group 3174" transform="translate(0.258 -0.326)">
    <rect id="Rectangle_2220" data-name="Rectangle 2220" width="93" height="93" transform="translate(-0.258 0.326)" fill="none"/>
    <g id="Group_9655" data-name="Group 9655" transform="translate(6.751 13.086)">
      <g id="Group_9653" data-name="Group 9653">
        <g id="Group_9652" data-name="Group 9652">
          <g id="Group_9651" data-name="Group 9651">
            <path id="Path_20298" data-name="Path 20298" d="M5075.471,2456.48c-.088-1.905-.214-3.758-.378-5.5-.251-2.662-.514-4.214-.562-4.5a20.741,20.741,0,0,0-1.882-5.766,20.123,20.123,0,0,0-3.5-5,19.309,19.309,0,0,0-5.042-3.8,18.723,18.723,0,0,0-6.306-1.973l-.344-.039a206.109,206.109,0,0,0-21.639-.968h0a205.9,205.9,0,0,0-21.634.968l-.342.039a18.693,18.693,0,0,0-6.311,1.973,19.174,19.174,0,0,0-5.044,3.8,20.375,20.375,0,0,0-3.5,5,20.875,20.875,0,0,0-1.874,5.761c-.051.285-.315,1.857-.564,4.5-.33,3.525-.5,7.357-.516,11.4v.019c0,4.042.171,7.873.516,11.393.252,2.662.516,4.215.564,4.5a20.815,20.815,0,0,0,1.877,5.766,20.32,20.32,0,0,0,3.5,5,19.256,19.256,0,0,0,5.041,3.794,18.736,18.736,0,0,0,6.319,1.975l.326.037a206.389,206.389,0,0,0,21.639.97h0a206.954,206.954,0,0,0,21.635-.97l.327-.037a18.717,18.717,0,0,0,6.318-1.975,19.2,19.2,0,0,0,5.039-3.794,20.294,20.294,0,0,0,3.506-5,21.07,21.07,0,0,0,1.879-5.758c.047-.289.312-1.853.559-4.5.334-3.521.5-7.355.515-11.4v-.018C5075.593,2460.349,5075.558,2458.371,5075.471,2456.48Zm-11.914,5.9c0,2.289-.067,4.317-.154,6.042s-.2,3.153-.3,4.233c-.2,2.148-.408,3.394-.43,3.561v.029a7.692,7.692,0,0,1-6.38,6.62l-.144.018a231.377,231.377,0,0,1-40.63,0l-.135-.018a7.685,7.685,0,0,1-6.385-6.617v-.033c-.02-.11-.229-1.366-.437-3.56-.205-2.163-.449-5.7-.452-10.269s.247-8.116.452-10.277.408-3.408.44-3.562v-.024a7.679,7.679,0,0,1,6.381-6.622l.131-.015a231.011,231.011,0,0,1,40.647,0h.012l.081.008h.031a7.686,7.686,0,0,1,6.386,6.619v.031c.019.11.228,1.365.434,3.56.2,2.16.455,5.7.455,10.272Z" transform="translate(-4996.032 -2428.941)" fill="url(#linear-gradient)"/>
          </g>
        </g>
      </g>
    </g>
  </g>
</svg>
