<svg xmlns="http://www.w3.org/2000/svg" width="32" height="23.273" viewBox="0 0 32 23.273">
  <path id="payments_FILL1_wght400_GRAD0_opsz48" d="M4.182,31.273A2.173,2.173,0,0,1,2,29.091V12.364H4.182V29.091H29.636v2.182Zm4.364-4.364a2.173,2.173,0,0,1-2.182-2.182V10.182A2.173,2.173,0,0,1,8.545,8H31.818A2.173,2.173,0,0,1,34,10.182V24.727a2.173,2.173,0,0,1-2.182,2.182Zm0-2.182h3.636a3.6,3.6,0,0,0-3.636-3.636v3.636Zm19.636,0h3.636V21.091a3.6,3.6,0,0,0-3.636,3.636Zm-8-2.909a4.345,4.345,0,0,0,4.364-4.364,4.345,4.345,0,0,0-4.364-4.364,4.345,4.345,0,0,0-4.364,4.364,4.345,4.345,0,0,0,4.364,4.364Zm-11.636-8a3.6,3.6,0,0,0,3.636-3.636H8.545Zm23.273,0V10.182H28.182a3.6,3.6,0,0,0,3.636,3.636Z" transform="translate(-2 -8)" fill="#02abc0"/>
</svg>
