<svg id="call_black_24dp" xmlns="http://www.w3.org/2000/svg" width="24" height="24" viewBox="0 0 24 24">
  <path id="Path_21354" data-name="Path 21354" d="M0,0H24V24H0Z" fill="none"/>
  <path id="Path_21355" data-name="Path 21355" d="M6.8,5.15a13.233,13.233,0,0,0,.484,2.784L6,9.223A15.934,15.934,0,0,1,5.182,5.15H6.8M17.4,18.068a13.706,13.706,0,0,0,2.794.484v1.6a16.58,16.58,0,0,1-4.084-.806l1.29-1.279M7.836,3H4.075A1.078,1.078,0,0,0,3,4.075,18.269,18.269,0,0,0,21.271,22.346a1.078,1.078,0,0,0,1.075-1.075V17.52a1.078,1.078,0,0,0-1.075-1.075,12.26,12.26,0,0,1-3.837-.613.9.9,0,0,0-.333-.054,1.1,1.1,0,0,0-.763.312l-2.364,2.364a16.281,16.281,0,0,1-7.083-7.083L9.255,9.008a1.079,1.079,0,0,0,.269-1.1,12.21,12.21,0,0,1-.613-3.837A1.078,1.078,0,0,0,7.836,3Z" transform="translate(-0.673 -0.673)" fill="#3b3b3b"/>
</svg>
