<svg xmlns="http://www.w3.org/2000/svg" width="57.92" height="75.19" viewBox="0 0 57.92 75.19">
  <g id="Group_3192" data-name="Group 3192" transform="translate(-64.689)">
    <g id="Group_3193" data-name="Group 3193" transform="translate(64.689)">
      <path id="Path_55" data-name="Path 55" d="M101.4,0a5.868,5.868,0,0,0-2.937.789L86.4,7.753c.011.171.024.34.024.521V25.292c0,7.52-.685,8.916-7.167,12.412L64.689,46.117V59.291a5.857,5.857,0,0,0,2.936,5.087L75.45,68.9,103.5,52.7a16.38,16.38,0,0,0,8.19-14.187V5.036L104.339.789A5.868,5.868,0,0,0,101.4,0Z" transform="translate(-64.689)" fill="#98bee7"/>
      <path id="Path_56" data-name="Path 56" d="M117.429,9.224a5.868,5.868,0,0,0-2.937.789l-12.063,6.964c.011.171.024.341.024.521V34.516c0,7.52-.685,8.916-7.167,12.412L80.716,55.341V68.515A5.857,5.857,0,0,0,83.652,73.6l7.825,4.519,28.054-16.2a16.38,16.38,0,0,0,8.19-14.187V14.26l-7.357-4.246a5.868,5.868,0,0,0-2.937-.789Z" transform="translate(-75.405 -6.167)" fill="#2261ab"/>
      <path id="Path_57" data-name="Path 57" d="M134.334,18.992a5.868,5.868,0,0,0-2.937.789l-12.063,6.964c.011.171.024.34.024.521V44.284c0,7.52-.685,8.916-7.167,12.412L97.621,65.109V78.283a5.857,5.857,0,0,0,2.936,5.087l7.825,4.519,28.054-16.2a16.38,16.38,0,0,0,8.19-14.187V24.028l-7.357-4.246a5.868,5.868,0,0,0-2.937-.789Z" transform="translate(-86.708 -12.698)" fill="#0d233f"/>
    </g>
  </g>
</svg>
