<svg xmlns="http://www.w3.org/2000/svg" width="32" height="31.88" viewBox="0 0 32 31.88">
  <path id="sell_FILL1_wght400_GRAD0_opsz48" d="M21.375,35.88a3,3,0,0,1-.917-.139,2.091,2.091,0,0,1-.837-.538L4.677,20.259a2.091,2.091,0,0,1-.538-.837A3,3,0,0,1,4,18.506V6.391A2.317,2.317,0,0,1,6.391,4H18.506a3.4,3.4,0,0,1,.956.139,2.046,2.046,0,0,1,.877.538L35.2,19.542a2.371,2.371,0,0,1,0,3.547L23.088,35.2a2.234,2.234,0,0,1-.777.5A2.55,2.55,0,0,1,21.375,35.88Zm-10.8-23.273A2.057,2.057,0,0,0,12.03,9.081,2.057,2.057,0,1,0,9.121,11.99,1.99,1.99,0,0,0,10.575,12.608Z" transform="translate(-4 -4)" fill="#02abc0"/>
</svg>
