<svg xmlns="http://www.w3.org/2000/svg" width="32" height="28.658" viewBox="0 0 32 28.658">
  <path id="storefront_FILL1_wght400_GRAD0_opsz48" d="M34.23,18.777V32.27a2.449,2.449,0,0,1-2.388,2.388H7.92a2.291,2.291,0,0,1-1.672-.716,2.291,2.291,0,0,1-.716-1.672V18.777a4.508,4.508,0,0,1-1.473-2.348,4.981,4.981,0,0,1,.08-2.786L5.85,8.269A3.127,3.127,0,0,1,6.964,6.6,2.97,2.97,0,0,1,8.8,6H30.807a3.2,3.2,0,0,1,1.95.617,3.143,3.143,0,0,1,1.154,1.652l1.751,5.373a4.862,4.862,0,0,1,.06,2.786A4.628,4.628,0,0,1,34.23,18.777ZM23.483,17.543a2.725,2.725,0,0,0,1.95-.756,1.992,1.992,0,0,0,.637-1.831l-1-6.568h-3.98v6.568a2.67,2.67,0,0,0,.677,1.811A2.173,2.173,0,0,0,23.483,17.543Zm-7.443,0a2.608,2.608,0,0,0,1.891-.756,2.462,2.462,0,0,0,.776-1.831V8.388h-3.98l-1,6.568a2.08,2.08,0,0,0,.557,1.811A2.293,2.293,0,0,0,16.04,17.543Zm-7.244,0a2.327,2.327,0,0,0,1.652-.657,2.593,2.593,0,0,0,.816-1.612L12.3,8.388H8.318L6.487,14.2a2.507,2.507,0,0,0,.318,2.289A2.276,2.276,0,0,0,8.8,17.543Zm22.17,0a2.337,2.337,0,0,0,2.01-1.035,2.5,2.5,0,0,0,.338-2.309L31.483,8.388H27.5l1.035,6.886a2.593,2.593,0,0,0,.816,1.612A2.279,2.279,0,0,0,30.966,17.543Z" transform="translate(-3.897 -6)" fill="#02abc0"/>
</svg>
