<svg xmlns="http://www.w3.org/2000/svg" xmlns:xlink="http://www.w3.org/1999/xlink" width="24" height="24" viewBox="0 0 24 24">
  <defs>
    <clipPath id="clip-path">
      <rect id="Rectangle_5290" data-name="Rectangle 5290" width="18.831" height="18.947" fill="#3b3b3b"/>
    </clipPath>
  </defs>
  <g id="Group_11936" data-name="Group 11936" transform="translate(-0.138 0.422)">
    <g id="Group_11935" data-name="Group 11935" transform="translate(2.722 2.104)" clip-path="url(#clip-path)">
      <path id="Path_21353" data-name="Path 21353" d="M9.586,0A9.228,9.228,0,0,0,1.668,14L0,18.947l5.118-1.636A9.235,9.235,0,1,0,9.586,0m0,16.913a7.661,7.661,0,0,1-4.234-1.27L2.4,16.587l.961-2.853a7.7,7.7,0,1,1,6.23,3.178m4.335-5.586c-.232-.127-1.37-.74-1.584-.827s-.369-.132-.536.1-.638.743-.782.9-.282.166-.514.039a6.445,6.445,0,0,1-1.854-1.24A7.118,7.118,0,0,1,7.4,8.613c-.129-.241,0-.364.122-.477s.246-.267.37-.4a1.608,1.608,0,0,0,.251-.384.433.433,0,0,0,0-.413c-.055-.12-.483-1.3-.662-1.776S7.1,4.755,6.961,4.75s-.294-.031-.452-.036a.868.868,0,0,0-.64.271,2.641,2.641,0,0,0-.9,1.934,4.579,4.579,0,0,0,.872,2.472,9.677,9.677,0,0,0,3.9,3.708c2.364,1.033,2.376.718,2.81.695a2.387,2.387,0,0,0,1.635-1.06,1.965,1.965,0,0,0,.18-1.115c-.055-.1-.21-.166-.442-.292" fill="#3b3b3b" fill-rule="evenodd"/>
    </g>
    <rect id="Rectangle_5291" data-name="Rectangle 5291" width="24" height="24" transform="translate(0.138 -0.422)" fill="none"/>
  </g>
</svg>
